<?xml version="1.0" encoding="UTF-8"?>
<svg id="Layer_1" xmlns="http://www.w3.org/2000/svg" viewBox="0 0 200 200">
  <defs>
    <style>
      .cls-1, .cls-2 {
        fill: #fff;
      }

      .cls-2 {
        font-family: MyriadPro-Regular, 'Myriad Pro';
        font-size: 54.33px;
      }

      .cls-3 {
        fill: none;
      }

      .cls-4 {
        fill: #a0251f;
      }
    </style>
  </defs>
  <rect class="cls-3" x="0" y="0" width="200" height="200"/>
  <g>
    <g>
      <polygon class="cls-1" points="15 187.03 15 79.95 70.75 130.18 15 187.03"/>
      <path class="cls-1" d="M113.9,145.74c-3.5,3.2-8.05,4.97-12.79,4.97s-9.3-1.77-12.8-4.97l-9.15-8.38h-1.23l-56.85,55.75c-.83.83,157.86,1.1,157.86,1.1l-56.66-56.12-8.37,7.65Z"/>
      <path class="cls-1" d="M184.45,187.03l-55.19-56.85,55.75-50.23s-1.1,106.53-.55,107.08Z"/>
      <path class="cls-1" d="M22.73,72.22L94.49,8.09c3.44-3.08,8.66-3.06,12.08.05l71.81,65.19-71.18,65.08c-3.45,3.15-8.74,3.15-12.18,0L22.73,72.22Z"/>
    </g>
    <polygon class="cls-4" points="43.7 71.67 155.19 42.42 168.44 90.99 128.15 127.97 123.54 124.66 102.46 144.88 77.37 123.55 72.13 128.8 53.08 110.86 43.7 71.67"/>
    <text class="cls-2" transform="translate(85.07 104.45)"><tspan x="0" y="0">@</tspan></text>
  </g>
</svg>